<?xml version="1.0" encoding="utf-8"?>
<!-- Generator: Adobe Illustrator 25.2.1, SVG Export Plug-In . SVG Version: 6.00 Build 0)  -->
<svg version="1.1" xmlns="http://www.w3.org/2000/svg" xmlns:xlink="http://www.w3.org/1999/xlink" x="0px" y="0px"
	 viewBox="0 0 500 500" style="enable-background:new 0 0 500 500;" xml:space="preserve">
<style type="text/css">
	.st0{fill:#F5F5F5;}
	.st1{fill:#E0E0E0;}
	.st2{fill:#BA68C8;}
	.st3{opacity:0.6;fill:#FFFFFF;}
	.st4{opacity:0.2;fill:#FFFFFF;}
	.st5{opacity:0.45;fill:#FFFFFF;}
	.st6{opacity:0.2;}
	.st7{opacity:0.4;fill:#FFFFFF;}
	.st8{fill:#37474F;}
	.st9{fill:#455A64;}
	.st10{fill:#263238;}
</style>
<g id="Floor">
	<path id="Floor_00000129919152209140310890000000316557648856388743_" class="st0" d="M86.6,249.3c-90.2,52.1-90.2,136.6,0,188.7
		c90.2,52.1,236.5,52.1,326.8,0c90.2-52.1,90.2-136.6,0-188.7C323.2,197.2,176.8,197.2,86.6,249.3z"/>
</g>
<g id="Shadows">
	<path id="Shadow_00000174565433146283405040000000841007495879870893_" class="st1" d="M413.6,364.8L291,435.6
		c-11.4,6.6-29.9,6.6-41.3,0L70.2,331.9c-6.7-3.9-6.7-10.2,0-14l122.6-70.8c11.4-6.6,29.9-6.6,41.3,0l179.5,103.6
		C420.2,354.6,420.2,360.9,413.6,364.8z"/>
</g>
<g id="Shopping_Basket">
	<g id="Basket">
		<g>
			<g>
				<path class="st2" d="M80.3,207.9l10.8,110.9l129-64V127.2L80.3,207.9z M197.2,161.9c0.6-0.5,1.2-1,1.9-1.4l3.6-2.1
					c0.8-0.5,1.6-0.8,2.3-0.9c0.2,0.6,0.3,1.3,0.3,2.1v11.5c0,0.8-0.1,1.7-0.3,2.5c-0.8,3.5-3.3,7.1-6.2,8.8l-3.4,1.9
					c-0.8,0.5-1.6,0.8-2.3,0.9c-0.2-0.6-0.3-1.3-0.3-2.1l-0.1-11.5C192.7,168.3,194.6,164.4,197.2,161.9z M165.8,180
					c0.6-0.6,1.2-1,1.9-1.4l3.6-2.1c0.8-0.5,1.6-0.8,2.3-0.9c0.2,0.6,0.3,1.3,0.3,2.1v11.5c0,0.8-0.1,1.7-0.3,2.6
					c-0.9,3.5-3.3,7.1-6.2,8.8l-3.4,1.9c-0.8,0.5-1.6,0.8-2.4,0.9c-0.2-0.6-0.3-1.3-0.3-2l-0.1-11.5
					C161.3,186.5,163.2,182.5,165.8,180z M135.6,197.5c0.6-0.5,1.2-1,1.8-1.3l3.6-2.1c0.9-0.5,1.7-0.8,2.4-0.9
					c0.2,0.6,0.3,1.2,0.3,2l0.2,11.6c0,0.8-0.1,1.6-0.3,2.4c-0.8,3.4-3.2,7-6.1,8.7l-3.4,1.9c-0.9,0.5-1.7,0.8-2.5,0.9
					c-0.2-0.6-0.3-1.2-0.3-1.9l-0.4-11.6C131,203.8,132.9,199.9,135.6,197.5z M101.5,236.1l-0.6-11.6c-0.2-3.2,1.7-7.2,4.4-9.6
					c0.5-0.5,1.1-0.9,1.7-1.2l3.6-2.1c0.9-0.5,1.8-0.8,2.6-0.9c0.2,0.5,0.3,1.1,0.3,1.8l0.5,11.6c0,0.8,0,1.5-0.2,2.3
					c-0.7,3.4-3.1,6.9-6,8.6l-3.3,1.9c-0.9,0.5-1.8,0.8-2.6,0.9C101.6,237.3,101.5,236.8,101.5,236.1z M122.1,268.5l-0.6-11.6
					c-0.2-3.2,1.7-7.2,4.4-9.6c0.5-0.5,1.1-0.9,1.7-1.2l3.6-2.1c0.9-0.5,1.8-0.8,2.6-0.9c0.2,0.5,0.3,1.1,0.3,1.8l0.5,11.6
					c0,0.8,0,1.6-0.2,2.4c-0.7,3.4-3.1,6.9-6,8.6l-3.3,1.9c-0.9,0.5-1.8,0.8-2.6,0.9C122.3,269.7,122.1,269.1,122.1,268.5z
					 M152,251.1l-0.3-11.6c-0.1-3.3,1.8-7.3,4.5-9.7c0.6-0.5,1.2-1,1.8-1.3l3.6-2.1c0.9-0.5,1.7-0.8,2.4-0.9c0.2,0.6,0.3,1.2,0.3,2
					l0.2,11.5c0,0.8-0.1,1.6-0.3,2.4c-0.8,3.5-3.2,7-6.1,8.7l-3.4,1.9c-0.9,0.5-1.7,0.8-2.5,0.9C152.2,252.4,152.1,251.8,152,251.1z
					 M182,233.7l-0.1-11.5c0-3.3,1.9-7.3,4.5-9.8c0.6-0.6,1.2-1,1.9-1.4l3.6-2.1c0.8-0.5,1.6-0.8,2.3-0.9c0.2,0.6,0.3,1.3,0.3,2.1
					v11.5c0,0.8-0.1,1.7-0.3,2.5c-0.8,3.5-3.3,7.1-6.2,8.8l-3.4,1.9c-0.8,0.5-1.6,0.8-2.4,0.9C182.1,235.2,182,234.5,182,233.7z"/>
				<path class="st3" d="M80.3,207.9l10.8,110.9l129-64V127.2L80.3,207.9z M197.2,161.9c0.6-0.5,1.2-1,1.9-1.4l3.6-2.1
					c0.8-0.5,1.6-0.8,2.3-0.9c0.2,0.6,0.3,1.3,0.3,2.1v11.5c0,0.8-0.1,1.7-0.3,2.5c-0.8,3.5-3.3,7.1-6.2,8.8l-3.4,1.9
					c-0.8,0.5-1.6,0.8-2.3,0.9c-0.2-0.6-0.3-1.3-0.3-2.1l-0.1-11.5C192.7,168.3,194.6,164.4,197.2,161.9z M165.8,180
					c0.6-0.6,1.2-1,1.9-1.4l3.6-2.1c0.8-0.5,1.6-0.8,2.3-0.9c0.2,0.6,0.3,1.3,0.3,2.1v11.5c0,0.8-0.1,1.7-0.3,2.6
					c-0.9,3.5-3.3,7.1-6.2,8.8l-3.4,1.9c-0.8,0.5-1.6,0.8-2.4,0.9c-0.2-0.6-0.3-1.3-0.3-2l-0.1-11.5
					C161.3,186.5,163.2,182.5,165.8,180z M135.6,197.5c0.6-0.5,1.2-1,1.8-1.3l3.6-2.1c0.9-0.5,1.7-0.8,2.4-0.9
					c0.2,0.6,0.3,1.2,0.3,2l0.2,11.6c0,0.8-0.1,1.6-0.3,2.4c-0.8,3.4-3.2,7-6.1,8.7l-3.4,1.9c-0.9,0.5-1.7,0.8-2.5,0.9
					c-0.2-0.6-0.3-1.2-0.3-1.9l-0.4-11.6C131,203.8,132.9,199.9,135.6,197.5z M101.5,236.1l-0.6-11.6c-0.2-3.2,1.7-7.2,4.4-9.6
					c0.5-0.5,1.1-0.9,1.7-1.2l3.6-2.1c0.9-0.5,1.8-0.8,2.6-0.9c0.2,0.5,0.3,1.1,0.3,1.8l0.5,11.6c0,0.8,0,1.5-0.2,2.3
					c-0.7,3.4-3.1,6.9-6,8.6l-3.3,1.9c-0.9,0.5-1.8,0.8-2.6,0.9C101.6,237.3,101.5,236.8,101.5,236.1z M122.1,268.5l-0.6-11.6
					c-0.2-3.2,1.7-7.2,4.4-9.6c0.5-0.5,1.1-0.9,1.7-1.2l3.6-2.1c0.9-0.5,1.8-0.8,2.6-0.9c0.2,0.5,0.3,1.1,0.3,1.8l0.5,11.6
					c0,0.8,0,1.6-0.2,2.4c-0.7,3.4-3.1,6.9-6,8.6l-3.3,1.9c-0.9,0.5-1.8,0.8-2.6,0.9C122.3,269.7,122.1,269.1,122.1,268.5z
					 M152,251.1l-0.3-11.6c-0.1-3.3,1.8-7.3,4.5-9.7c0.6-0.5,1.2-1,1.8-1.3l3.6-2.1c0.9-0.5,1.7-0.8,2.4-0.9c0.2,0.6,0.3,1.2,0.3,2
					l0.2,11.5c0,0.8-0.1,1.6-0.3,2.4c-0.8,3.5-3.2,7-6.1,8.7l-3.4,1.9c-0.9,0.5-1.7,0.8-2.5,0.9C152.2,252.4,152.1,251.8,152,251.1z
					 M182,233.7l-0.1-11.5c0-3.3,1.9-7.3,4.5-9.8c0.6-0.6,1.2-1,1.9-1.4l3.6-2.1c0.8-0.5,1.6-0.8,2.3-0.9c0.2,0.6,0.3,1.3,0.3,2.1
					v11.5c0,0.8-0.1,1.7-0.3,2.5c-0.8,3.5-3.3,7.1-6.2,8.8l-3.4,1.9c-0.8,0.5-1.6,0.8-2.4,0.9C182.1,235.2,182,234.5,182,233.7z"/>
				<g>
					<path class="st2" d="M138.6,258.9c0,0.8,0,1.6-0.2,2.4c-0.7,3.4-3.1,6.9-6,8.6l-3.3,1.9c-3,1.7-5.6,1-6.6-1.6
						c0.8-0.1,1.7-0.4,2.6-0.9l3.3-1.9c2.9-1.7,5.3-5.2,6-8.6c0.2-0.8,0.2-1.6,0.2-2.4l-0.5-11.6c0-0.7-0.1-1.3-0.3-1.8
						c2.4-0.3,4.1,1.4,4.2,4.3L138.6,258.9z"/>
					<path class="st2" d="M117.9,226.6c0,0.8,0,1.5-0.2,2.4c-0.7,3.4-3.1,6.9-6,8.6l-3.3,1.9c-3,1.7-5.7,1-6.6-1.6
						c0.8-0.1,1.7-0.4,2.6-0.9l3.3-1.9c2.9-1.7,5.3-5.2,6-8.6c0.2-0.8,0.2-1.6,0.2-2.3l-0.5-11.6c0-0.7-0.1-1.3-0.3-1.8
						c2.4-0.3,4.1,1.4,4.2,4.3L117.9,226.6z"/>
					<path class="st2" d="M198.5,212.6v11.5c0,0.8-0.1,1.7-0.3,2.5c-0.9,3.5-3.3,7.1-6.2,8.8l-3.4,2c-2.9,1.7-5.4,0.9-6.3-1.6
						c0.7-0.1,1.5-0.4,2.4-0.9l3.4-1.9c2.9-1.7,5.4-5.3,6.2-8.8c0.2-0.9,0.3-1.7,0.3-2.5v-11.5c0-0.8-0.1-1.5-0.3-2.1
						C196.8,207.7,198.5,209.4,198.5,212.6z"/>
					<path class="st2" d="M209.3,162.1v11.5c0,0.8-0.1,1.7-0.3,2.5c-0.8,3.5-3.3,7.1-6.2,8.8l-3.4,1.9c-2.9,1.7-5.4,0.9-6.3-1.6
						c0.7-0.1,1.5-0.4,2.3-0.9l3.4-1.9c2.9-1.7,5.4-5.3,6.2-8.8c0.2-0.9,0.3-1.7,0.3-2.5v-11.5c0-0.8-0.1-1.5-0.3-2.1
						C207.6,157.2,209.3,158.9,209.3,162.1z"/>
					<path class="st2" d="M147.9,209.2c0,0.8-0.1,1.6-0.3,2.4c-0.8,3.4-3.2,7-6.1,8.7l-3.4,1.9c-3,1.7-5.5,1-6.4-1.6
						c0.8-0.1,1.6-0.4,2.5-0.9l3.4-1.9c2.9-1.7,5.3-5.2,6.1-8.7c0.2-0.8,0.3-1.7,0.3-2.4l-0.2-11.6c0-0.7-0.1-1.4-0.3-2
						c2.4-0.3,4.2,1.4,4.2,4.5L147.9,209.2z"/>
					<path class="st2" d="M168.5,241.5c0,0.8-0.1,1.6-0.3,2.4c-0.8,3.5-3.2,7-6.1,8.7l-3.4,1.9c-3,1.7-5.5,1-6.4-1.6
						c0.8-0.1,1.6-0.4,2.5-0.9l3.4-1.9c2.9-1.7,5.3-5.2,6.1-8.7c0.2-0.8,0.3-1.7,0.3-2.4l-0.2-11.5c0-0.8-0.1-1.4-0.3-2
						c2.4-0.3,4.2,1.4,4.2,4.5L168.5,241.5z"/>
					<path class="st2" d="M177.9,180.3v11.5c0,0.8-0.1,1.7-0.3,2.5c-0.8,3.5-3.3,7.1-6.2,8.8L168,205c-2.9,1.7-5.4,0.9-6.3-1.6
						c0.7-0.1,1.5-0.4,2.4-0.9l3.4-1.9c2.9-1.7,5.4-5.3,6.2-8.8c0.2-0.9,0.3-1.7,0.3-2.6v-11.5c0-0.8-0.1-1.5-0.3-2.1
						C176.2,175.3,177.9,177,177.9,180.3z"/>
					<path class="st4" d="M138.6,258.9c0,0.8,0,1.6-0.2,2.4c-0.7,3.4-3.1,6.9-6,8.6l-3.3,1.9c-3,1.7-5.6,1-6.6-1.6
						c0.8-0.1,1.7-0.4,2.6-0.9l3.3-1.9c2.9-1.7,5.3-5.2,6-8.6c0.2-0.8,0.2-1.6,0.2-2.4l-0.5-11.6c0-0.7-0.1-1.3-0.3-1.8
						c2.4-0.3,4.1,1.4,4.2,4.3L138.6,258.9z"/>
					<path class="st4" d="M117.9,226.6c0,0.8,0,1.5-0.2,2.4c-0.7,3.4-3.1,6.9-6,8.6l-3.3,1.9c-3,1.7-5.7,1-6.6-1.6
						c0.8-0.1,1.7-0.4,2.6-0.9l3.3-1.9c2.9-1.7,5.3-5.2,6-8.6c0.2-0.8,0.2-1.6,0.2-2.3l-0.5-11.6c0-0.7-0.1-1.3-0.3-1.8
						c2.4-0.3,4.1,1.4,4.2,4.3L117.9,226.6z"/>
					<path class="st4" d="M198.5,212.6v11.5c0,0.8-0.1,1.7-0.3,2.5c-0.9,3.5-3.3,7.1-6.2,8.8l-3.4,2c-2.9,1.7-5.4,0.9-6.3-1.6
						c0.7-0.1,1.5-0.4,2.4-0.9l3.4-1.9c2.9-1.7,5.4-5.3,6.2-8.8c0.2-0.9,0.3-1.7,0.3-2.5v-11.5c0-0.8-0.1-1.5-0.3-2.1
						C196.8,207.7,198.5,209.4,198.5,212.6z"/>
					<path class="st4" d="M209.3,162.1v11.5c0,0.8-0.1,1.7-0.3,2.5c-0.8,3.5-3.3,7.1-6.2,8.8l-3.4,1.9c-2.9,1.7-5.4,0.9-6.3-1.6
						c0.7-0.1,1.5-0.4,2.3-0.9l3.4-1.9c2.9-1.7,5.4-5.3,6.2-8.8c0.2-0.9,0.3-1.7,0.3-2.5v-11.5c0-0.8-0.1-1.5-0.3-2.1
						C207.6,157.2,209.3,158.9,209.3,162.1z"/>
					<path class="st4" d="M147.9,209.2c0,0.8-0.1,1.6-0.3,2.4c-0.8,3.4-3.2,7-6.1,8.7l-3.4,1.9c-3,1.7-5.5,1-6.4-1.6
						c0.8-0.1,1.6-0.4,2.5-0.9l3.4-1.9c2.9-1.7,5.3-5.2,6.1-8.7c0.2-0.8,0.3-1.7,0.3-2.4l-0.2-11.6c0-0.7-0.1-1.4-0.3-2
						c2.4-0.3,4.2,1.4,4.2,4.5L147.9,209.2z"/>
					<path class="st4" d="M168.5,241.5c0,0.8-0.1,1.6-0.3,2.4c-0.8,3.5-3.2,7-6.1,8.7l-3.4,1.9c-3,1.7-5.5,1-6.4-1.6
						c0.8-0.1,1.6-0.4,2.5-0.9l3.4-1.9c2.9-1.7,5.3-5.2,6.1-8.7c0.2-0.8,0.3-1.7,0.3-2.4l-0.2-11.5c0-0.8-0.1-1.4-0.3-2
						c2.4-0.3,4.2,1.4,4.2,4.5L168.5,241.5z"/>
					<path class="st4" d="M177.9,180.3v11.5c0,0.8-0.1,1.7-0.3,2.5c-0.8,3.5-3.3,7.1-6.2,8.8L168,205c-2.9,1.7-5.4,0.9-6.3-1.6
						c0.7-0.1,1.5-0.4,2.4-0.9l3.4-1.9c2.9-1.7,5.4-5.3,6.2-8.8c0.2-0.9,0.3-1.7,0.3-2.6v-11.5c0-0.8-0.1-1.5-0.3-2.1
						C176.2,175.3,177.9,177,177.9,180.3z"/>
				</g>
			</g>
			<g>
				<path class="st2" d="M220.1,127.2v127.7l170.7,98.6l20.1-116.2L220.1,127.2z M360.1,229l3.6,2.1c0.6,0.3,1.1,0.7,1.6,1.2
					c2.8,2.4,4.6,6.3,4.4,9.5l-0.9,11.6c0,0.6-0.2,1.1-0.3,1.6c-0.9-0.1-1.8-0.4-2.8-1l-3.3-1.9c-2.9-1.7-5.3-5.2-5.9-8.5
					c-0.1-0.8-0.2-1.5-0.2-2.2l0.8-11.6c0-0.6,0.2-1.2,0.3-1.7C358.2,228.1,359.1,228.4,360.1,229z M329.8,211.5l3.6,2.1
					c0.6,0.3,1.2,0.8,1.7,1.2c2.7,2.4,4.6,6.4,4.4,9.6l-0.6,11.6c0,0.6-0.2,1.2-0.3,1.8c-0.8-0.1-1.7-0.4-2.6-0.9l-3.3-1.9
					c-2.9-1.7-5.3-5.2-6-8.6c-0.2-0.8-0.2-1.6-0.2-2.4l0.5-11.6c0-0.7,0.1-1.3,0.3-1.8C328,210.7,328.9,211,329.8,211.5z M299.4,194
					l3.6,2.1c0.6,0.3,1.2,0.8,1.8,1.3c2.7,2.4,4.6,6.4,4.5,9.7l-0.3,11.6c0,0.7-0.1,1.3-0.3,1.9c-0.8-0.1-1.6-0.4-2.5-0.9l-3.4-1.9
					c-2.9-1.7-5.3-5.2-6.1-8.7c-0.2-0.8-0.3-1.7-0.3-2.4l0.2-11.6c0-0.7,0.1-1.4,0.3-2C297.7,193.2,298.5,193.5,299.4,194z
					 M269,176.5l3.6,2.1c0.7,0.4,1.3,0.9,1.9,1.4c2.7,2.5,4.6,6.4,4.5,9.8l-0.1,11.5c0,0.8-0.1,1.5-0.3,2c-0.7-0.1-1.5-0.4-2.4-0.9
					l-3.4-2c-2.9-1.7-5.4-5.3-6.2-8.8c-0.2-0.9-0.3-1.7-0.3-2.6v-11.5c0-0.8,0.1-1.5,0.3-2.1C267.4,175.7,268.2,176,269,176.5z
					 M237.6,158.4l3.6,2.1c0.7,0.4,1.3,0.9,1.9,1.4c2.7,2.5,4.6,6.4,4.5,9.8l-0.1,11.5c0,0.8-0.1,1.5-0.3,2
					c-0.7-0.1-1.5-0.4-2.3-0.9l-3.4-2c-2.9-1.7-5.4-5.3-6.2-8.8c-0.2-0.9-0.3-1.7-0.3-2.5v-11.5c0-0.8,0.1-1.5,0.3-2.1
					C236.1,157.6,236.8,157.9,237.6,158.4z M255.7,234.9l-3.4-2c-2.9-1.7-5.3-5.3-6.2-8.8c-0.2-0.9-0.3-1.7-0.3-2.5v-11.5
					c0-0.8,0.1-1.5,0.3-2.1c0.7,0.1,1.5,0.4,2.3,0.9l3.6,2.1c0.7,0.4,1.3,0.9,1.9,1.4c2.7,2.5,4.6,6.4,4.5,9.8l-0.1,11.5
					c0,0.8-0.1,1.4-0.3,2C257.3,235.6,256.6,235.3,255.7,234.9z M285.6,252.1l-3.4-1.9c-2.9-1.7-5.3-5.2-6.1-8.7
					c-0.2-0.8-0.3-1.6-0.3-2.4l0.2-11.5c0-0.8,0.1-1.4,0.3-2c0.8,0.1,1.6,0.4,2.4,0.9l3.6,2.1c0.6,0.4,1.2,0.8,1.8,1.3
					c2.7,2.5,4.6,6.4,4.5,9.7l-0.4,11.6c0,0.7-0.1,1.3-0.3,1.9C287.3,252.9,286.4,252.6,285.6,252.1z M315.3,269.3l-3.3-1.9
					c-2.9-1.7-5.3-5.2-6-8.6c-0.2-0.8-0.2-1.6-0.2-2.4l0.5-11.6c0-0.7,0.1-1.3,0.3-1.8c0.8,0.1,1.7,0.4,2.6,0.9l3.6,2.1
					c0.6,0.4,1.2,0.8,1.7,1.2c2.7,2.4,4.6,6.4,4.4,9.6l-0.6,11.6c0,0.6-0.2,1.2-0.3,1.8C317.2,270.1,316.3,269.8,315.3,269.3z
					 M345.1,286.4l-3.3-1.9c-2.9-1.7-5.3-5.2-5.9-8.5c-0.1-0.8-0.2-1.5-0.2-2.2l0.8-11.6c0-0.6,0.1-1.2,0.3-1.7
					c0.9,0.1,1.8,0.4,2.7,0.9l3.6,2.1c0.6,0.3,1.1,0.7,1.6,1.2c2.8,2.4,4.6,6.3,4.4,9.5l-0.9,11.6c0,0.6-0.2,1.1-0.3,1.6
					C347,287.3,346.1,287,345.1,286.4z M374.7,303.6l-3.3-1.9c-2.9-1.7-5.2-5.2-5.8-8.4c-0.1-0.7-0.2-1.4-0.1-2.2l1.1-11.7
					c0-0.6,0.2-1.1,0.3-1.5c0.9,0.1,1.9,0.4,2.9,1l3.6,2.1c0.5,0.3,1,0.7,1.5,1.1c2.8,2.4,4.6,6.2,4.3,9.4l-1.2,11.7
					c0,0.5-0.2,1-0.3,1.4C376.8,304.5,375.8,304.2,374.7,303.6z M395.3,271.2l-3.3-1.9c-2.9-1.7-5.2-5.1-5.8-8.4
					c-0.1-0.7-0.2-1.4-0.1-2.1l1.1-11.7c0-0.6,0.2-1.1,0.3-1.5c0.9,0.1,1.9,0.4,2.9,1l3.6,2.1c0.5,0.3,1,0.7,1.5,1.1
					c2.8,2.4,4.6,6.2,4.3,9.4l-1.2,11.7c0,0.5-0.2,1-0.3,1.4C397.4,272.1,396.4,271.8,395.3,271.2z"/>
				<path class="st5" d="M220.1,127.2v127.7l170.7,98.6l20.1-116.2L220.1,127.2z M360.1,229l3.6,2.1c0.6,0.3,1.1,0.7,1.6,1.2
					c2.8,2.4,4.6,6.3,4.4,9.5l-0.9,11.6c0,0.6-0.2,1.1-0.3,1.6c-0.9-0.1-1.8-0.4-2.8-1l-3.3-1.9c-2.9-1.7-5.3-5.2-5.9-8.5
					c-0.1-0.8-0.2-1.5-0.2-2.2l0.8-11.6c0-0.6,0.2-1.2,0.3-1.7C358.2,228.1,359.1,228.4,360.1,229z M329.8,211.5l3.6,2.1
					c0.6,0.3,1.2,0.8,1.7,1.2c2.7,2.4,4.6,6.4,4.4,9.6l-0.6,11.6c0,0.6-0.2,1.2-0.3,1.8c-0.8-0.1-1.7-0.4-2.6-0.9l-3.3-1.9
					c-2.9-1.7-5.3-5.2-6-8.6c-0.2-0.8-0.2-1.6-0.2-2.4l0.5-11.6c0-0.7,0.1-1.3,0.3-1.8C328,210.7,328.9,211,329.8,211.5z M299.4,194
					l3.6,2.1c0.6,0.3,1.2,0.8,1.8,1.3c2.7,2.4,4.6,6.4,4.5,9.7l-0.3,11.6c0,0.7-0.1,1.3-0.3,1.9c-0.8-0.1-1.6-0.4-2.5-0.9l-3.4-1.9
					c-2.9-1.7-5.3-5.2-6.1-8.7c-0.2-0.8-0.3-1.7-0.3-2.4l0.2-11.6c0-0.7,0.1-1.4,0.3-2C297.7,193.2,298.5,193.5,299.4,194z
					 M269,176.5l3.6,2.1c0.7,0.4,1.3,0.9,1.9,1.4c2.7,2.5,4.6,6.4,4.5,9.8l-0.1,11.5c0,0.8-0.1,1.5-0.3,2c-0.7-0.1-1.5-0.4-2.4-0.9
					l-3.4-2c-2.9-1.7-5.4-5.3-6.2-8.8c-0.2-0.9-0.3-1.7-0.3-2.6v-11.5c0-0.8,0.1-1.5,0.3-2.1C267.4,175.7,268.2,176,269,176.5z
					 M237.6,158.4l3.6,2.1c0.7,0.4,1.3,0.9,1.9,1.4c2.7,2.5,4.6,6.4,4.5,9.8l-0.1,11.5c0,0.8-0.1,1.5-0.3,2
					c-0.7-0.1-1.5-0.4-2.3-0.9l-3.4-2c-2.9-1.7-5.4-5.3-6.2-8.8c-0.2-0.9-0.3-1.7-0.3-2.5v-11.5c0-0.8,0.1-1.5,0.3-2.1
					C236.1,157.6,236.8,157.9,237.6,158.4z M255.7,234.9l-3.4-2c-2.9-1.7-5.3-5.3-6.2-8.8c-0.2-0.9-0.3-1.7-0.3-2.5v-11.5
					c0-0.8,0.1-1.5,0.3-2.1c0.7,0.1,1.5,0.4,2.3,0.9l3.6,2.1c0.7,0.4,1.3,0.9,1.9,1.4c2.7,2.5,4.6,6.4,4.5,9.8l-0.1,11.5
					c0,0.8-0.1,1.4-0.3,2C257.3,235.6,256.6,235.3,255.7,234.9z M285.6,252.1l-3.4-1.9c-2.9-1.7-5.3-5.2-6.1-8.7
					c-0.2-0.8-0.3-1.6-0.3-2.4l0.2-11.5c0-0.8,0.1-1.4,0.3-2c0.8,0.1,1.6,0.4,2.4,0.9l3.6,2.1c0.6,0.4,1.2,0.8,1.8,1.3
					c2.7,2.5,4.6,6.4,4.5,9.7l-0.4,11.6c0,0.7-0.1,1.3-0.3,1.9C287.3,252.9,286.4,252.6,285.6,252.1z M315.3,269.3l-3.3-1.9
					c-2.9-1.7-5.3-5.2-6-8.6c-0.2-0.8-0.2-1.6-0.2-2.4l0.5-11.6c0-0.7,0.1-1.3,0.3-1.8c0.8,0.1,1.7,0.4,2.6,0.9l3.6,2.1
					c0.6,0.4,1.2,0.8,1.7,1.2c2.7,2.4,4.6,6.4,4.4,9.6l-0.6,11.6c0,0.6-0.2,1.2-0.3,1.8C317.2,270.1,316.3,269.8,315.3,269.3z
					 M345.1,286.4l-3.3-1.9c-2.9-1.7-5.3-5.2-5.9-8.5c-0.1-0.8-0.2-1.5-0.2-2.2l0.8-11.6c0-0.6,0.1-1.2,0.3-1.7
					c0.9,0.1,1.8,0.4,2.7,0.9l3.6,2.1c0.6,0.3,1.1,0.7,1.6,1.2c2.8,2.4,4.6,6.3,4.4,9.5l-0.9,11.6c0,0.6-0.2,1.1-0.3,1.6
					C347,287.3,346.1,287,345.1,286.4z M374.7,303.6l-3.3-1.9c-2.9-1.7-5.2-5.2-5.8-8.4c-0.1-0.7-0.2-1.4-0.1-2.2l1.1-11.7
					c0-0.6,0.2-1.1,0.3-1.5c0.9,0.1,1.9,0.4,2.9,1l3.6,2.1c0.5,0.3,1,0.7,1.5,1.1c2.8,2.4,4.6,6.2,4.3,9.4l-1.2,11.7
					c0,0.5-0.2,1-0.3,1.4C376.8,304.5,375.8,304.2,374.7,303.6z M395.3,271.2l-3.3-1.9c-2.9-1.7-5.2-5.1-5.8-8.4
					c-0.1-0.7-0.2-1.4-0.1-2.1l1.1-11.7c0-0.6,0.2-1.1,0.3-1.5c0.9,0.1,1.9,0.4,2.9,1l3.6,2.1c0.5,0.3,1,0.7,1.5,1.1
					c2.8,2.4,4.6,6.2,4.3,9.4l-1.2,11.7c0,0.5-0.2,1-0.3,1.4C397.4,272.1,396.4,271.8,395.3,271.2z"/>
				<g>
					<path class="st2" d="M395.3,271.2l-3.3-1.9c-2.9-1.7-5.2-5.1-5.8-8.4c-0.1-0.7-0.2-1.4-0.1-2.1l1.1-11.7c0-0.6,0.2-1.1,0.3-1.5
						c-2.3-0.2-4,1.3-4.2,4l-1,11.7c-0.1,0.7,0,1.4,0.1,2.1c0.6,3.3,2.9,6.7,5.8,8.4l3.3,1.9c3.1,1.8,5.9,1.1,6.9-1.5
						C397.4,272.1,396.4,271.8,395.3,271.2z M345.1,286.4l-3.3-1.9c-2.9-1.7-5.3-5.2-5.9-8.5c-0.1-0.8-0.2-1.5-0.2-2.2l0.8-11.6
						c0-0.6,0.1-1.2,0.3-1.7c-2.3-0.2-4.1,1.3-4.2,4.2l-0.8,11.6c0,0.7,0,1.5,0.2,2.2c0.6,3.3,3,6.8,5.9,8.5l3.3,1.9
						c3,1.8,5.8,1,6.7-1.5C347,287.3,346.1,287,345.1,286.4z M374.7,303.6l-3.3-1.9c-2.9-1.7-5.2-5.2-5.8-8.4
						c-0.1-0.7-0.2-1.4-0.1-2.2l1.1-11.7c0-0.6,0.2-1.1,0.3-1.5c-2.3-0.2-4,1.3-4.2,4l-1,11.7c-0.1,0.7,0,1.4,0.1,2.2
						c0.6,3.3,2.9,6.7,5.8,8.4l3.3,1.9c3.1,1.8,5.9,1.1,6.9-1.5C376.8,304.5,375.8,304.2,374.7,303.6z M365.7,254l-3.3-1.9
						c-2.9-1.7-5.3-5.2-5.9-8.5c-0.1-0.8-0.2-1.5-0.2-2.2l0.8-11.6c0-0.6,0.2-1.2,0.3-1.7c-2.3-0.2-4.1,1.3-4.2,4.2l-0.8,11.6
						c0,0.7,0,1.5,0.2,2.2c0.7,3.3,3,6.8,5.9,8.5l3.3,1.9c3,1.8,5.8,1,6.7-1.6C367.6,254.9,366.7,254.6,365.7,254z M315.3,269.3
						l-3.3-1.9c-2.9-1.7-5.3-5.2-6-8.6c-0.2-0.8-0.2-1.6-0.2-2.4l0.5-11.6c0-0.7,0.1-1.3,0.3-1.8c-2.4-0.3-4.1,1.4-4.2,4.3
						l-0.5,11.6c0,0.8,0,1.6,0.2,2.4c0.7,3.4,3.1,6.9,6,8.6l3.3,1.9c3,1.7,5.6,1,6.6-1.6C317.2,270.1,316.3,269.8,315.3,269.3z
						 M336,236.9l-3.3-1.9c-2.9-1.7-5.3-5.2-6-8.6c-0.2-0.8-0.2-1.6-0.2-2.4l0.5-11.6c0-0.7,0.1-1.3,0.3-1.8
						c-2.4-0.3-4.1,1.4-4.2,4.3l-0.5,11.6c0,0.8,0,1.6,0.2,2.4c0.7,3.4,3.1,6.9,6,8.6l3.3,1.9c3,1.7,5.7,1,6.6-1.6
						C337.8,237.7,336.9,237.4,336,236.9z M255.7,234.9l-3.4-2c-2.9-1.7-5.3-5.3-6.2-8.8c-0.2-0.9-0.3-1.7-0.3-2.5v-11.5
						c0-0.8,0.1-1.5,0.3-2.1c-2.5-0.4-4.2,1.4-4.2,4.6v11.5c0,0.8,0.1,1.7,0.3,2.5c0.9,3.5,3.3,7.1,6.2,8.8l3.4,2
						c2.9,1.7,5.4,0.9,6.3-1.7C257.3,235.6,256.6,235.3,255.7,234.9z M244.9,184.4l-3.4-2c-2.9-1.7-5.4-5.3-6.2-8.8
						c-0.2-0.9-0.3-1.7-0.3-2.5v-11.5c0-0.8,0.1-1.5,0.3-2.1c-2.5-0.4-4.2,1.4-4.2,4.6v11.5c0,0.8,0.1,1.7,0.3,2.5
						c0.8,3.5,3.3,7.1,6.2,8.8l3.4,2c2.9,1.7,5.4,0.9,6.3-1.6C246.6,185.1,245.8,184.9,244.9,184.4z M306.2,219.7l-3.4-1.9
						c-2.9-1.7-5.3-5.2-6.1-8.7c-0.2-0.8-0.3-1.7-0.3-2.4l0.2-11.6c0-0.7,0.1-1.4,0.3-2c-2.4-0.3-4.2,1.4-4.2,4.5l-0.2,11.6
						c0,0.8,0.1,1.6,0.3,2.4c0.8,3.4,3.2,7,6.1,8.7l3.4,1.9c3,1.7,5.5,0.9,6.4-1.6C307.9,220.5,307.1,220.2,306.2,219.7z
						 M285.6,252.1l-3.4-1.9c-2.9-1.7-5.3-5.2-6.1-8.7c-0.2-0.8-0.3-1.6-0.3-2.4l0.2-11.5c0-0.8,0.1-1.4,0.3-2
						c-2.4-0.3-4.2,1.4-4.2,4.5l-0.2,11.5c0,0.8,0.1,1.6,0.3,2.4c0.8,3.5,3.2,7,6.1,8.7l3.4,1.9c3,1.7,5.5,0.9,6.4-1.6
						C287.3,252.9,286.4,252.6,285.6,252.1z M276.3,202.5l-3.4-2c-2.9-1.7-5.4-5.3-6.2-8.8c-0.2-0.9-0.3-1.7-0.3-2.6v-11.5
						c0-0.8,0.1-1.5,0.3-2.1c-2.5-0.4-4.2,1.4-4.2,4.6v11.5c0,0.8,0.1,1.7,0.3,2.5c0.9,3.5,3.3,7.1,6.2,8.8l3.4,2
						c2.9,1.7,5.4,0.9,6.3-1.6C278,203.3,277.2,203,276.3,202.5z"/>
					<path class="st4" d="M395.3,271.2l-3.3-1.9c-2.9-1.7-5.2-5.1-5.8-8.4c-0.1-0.7-0.2-1.4-0.1-2.1l1.1-11.7c0-0.6,0.2-1.1,0.3-1.5
						c-2.3-0.2-4,1.3-4.2,4l-1,11.7c-0.1,0.7,0,1.4,0.1,2.1c0.6,3.3,2.9,6.7,5.8,8.4l3.3,1.9c3.1,1.8,5.9,1.1,6.9-1.5
						C397.4,272.1,396.4,271.8,395.3,271.2z M345.1,286.4l-3.3-1.9c-2.9-1.7-5.3-5.2-5.9-8.5c-0.1-0.8-0.2-1.5-0.2-2.2l0.8-11.6
						c0-0.6,0.1-1.2,0.3-1.7c-2.3-0.2-4.1,1.3-4.2,4.2l-0.8,11.6c0,0.7,0,1.5,0.2,2.2c0.6,3.3,3,6.8,5.9,8.5l3.3,1.9
						c3,1.8,5.8,1,6.7-1.5C347,287.3,346.1,287,345.1,286.4z M374.7,303.6l-3.3-1.9c-2.9-1.7-5.2-5.2-5.8-8.4
						c-0.1-0.7-0.2-1.4-0.1-2.2l1.1-11.7c0-0.6,0.2-1.1,0.3-1.5c-2.3-0.2-4,1.3-4.2,4l-1,11.7c-0.1,0.7,0,1.4,0.1,2.2
						c0.6,3.3,2.9,6.7,5.8,8.4l3.3,1.9c3.1,1.8,5.9,1.1,6.9-1.5C376.8,304.5,375.8,304.2,374.7,303.6z M365.7,254l-3.3-1.9
						c-2.9-1.7-5.3-5.2-5.9-8.5c-0.1-0.8-0.2-1.5-0.2-2.2l0.8-11.6c0-0.6,0.2-1.2,0.3-1.7c-2.3-0.2-4.1,1.3-4.2,4.2l-0.8,11.6
						c0,0.7,0,1.5,0.2,2.2c0.7,3.3,3,6.8,5.9,8.5l3.3,1.9c3,1.8,5.8,1,6.7-1.6C367.6,254.9,366.7,254.6,365.7,254z M315.3,269.3
						l-3.3-1.9c-2.9-1.7-5.3-5.2-6-8.6c-0.2-0.8-0.2-1.6-0.2-2.4l0.5-11.6c0-0.7,0.1-1.3,0.3-1.8c-2.4-0.3-4.1,1.4-4.2,4.3
						l-0.5,11.6c0,0.8,0,1.6,0.2,2.4c0.7,3.4,3.1,6.9,6,8.6l3.3,1.9c3,1.7,5.6,1,6.6-1.6C317.2,270.1,316.3,269.8,315.3,269.3z
						 M336,236.9l-3.3-1.9c-2.9-1.7-5.3-5.2-6-8.6c-0.2-0.8-0.2-1.6-0.2-2.4l0.5-11.6c0-0.7,0.1-1.3,0.3-1.8
						c-2.4-0.3-4.1,1.4-4.2,4.3l-0.5,11.6c0,0.8,0,1.6,0.2,2.4c0.7,3.4,3.1,6.9,6,8.6l3.3,1.9c3,1.7,5.7,1,6.6-1.6
						C337.8,237.7,336.9,237.4,336,236.9z M255.7,234.9l-3.4-2c-2.9-1.7-5.3-5.3-6.2-8.8c-0.2-0.9-0.3-1.7-0.3-2.5v-11.5
						c0-0.8,0.1-1.5,0.3-2.1c-2.5-0.4-4.2,1.4-4.2,4.6v11.5c0,0.8,0.1,1.7,0.3,2.5c0.9,3.5,3.3,7.1,6.2,8.8l3.4,2
						c2.9,1.7,5.4,0.9,6.3-1.7C257.3,235.6,256.6,235.3,255.7,234.9z M244.9,184.4l-3.4-2c-2.9-1.7-5.4-5.3-6.2-8.8
						c-0.2-0.9-0.3-1.7-0.3-2.5v-11.5c0-0.8,0.1-1.5,0.3-2.1c-2.5-0.4-4.2,1.4-4.2,4.6v11.5c0,0.8,0.1,1.7,0.3,2.5
						c0.8,3.5,3.3,7.1,6.2,8.8l3.4,2c2.9,1.7,5.4,0.9,6.3-1.6C246.6,185.1,245.8,184.9,244.9,184.4z M306.2,219.7l-3.4-1.9
						c-2.9-1.7-5.3-5.2-6.1-8.7c-0.2-0.8-0.3-1.7-0.3-2.4l0.2-11.6c0-0.7,0.1-1.4,0.3-2c-2.4-0.3-4.2,1.4-4.2,4.5l-0.2,11.6
						c0,0.8,0.1,1.6,0.3,2.4c0.8,3.4,3.2,7,6.1,8.7l3.4,1.9c3,1.7,5.5,0.9,6.4-1.6C307.9,220.5,307.1,220.2,306.2,219.7z
						 M285.6,252.1l-3.4-1.9c-2.9-1.7-5.3-5.2-6.1-8.7c-0.2-0.8-0.3-1.6-0.3-2.4l0.2-11.5c0-0.8,0.1-1.4,0.3-2
						c-2.4-0.3-4.2,1.4-4.2,4.5l-0.2,11.5c0,0.8,0.1,1.6,0.3,2.4c0.8,3.5,3.2,7,6.1,8.7l3.4,1.9c3,1.7,5.5,0.9,6.4-1.6
						C287.3,252.9,286.4,252.6,285.6,252.1z M276.3,202.5l-3.4-2c-2.9-1.7-5.4-5.3-6.2-8.8c-0.2-0.9-0.3-1.7-0.3-2.6v-11.5
						c0-0.8,0.1-1.5,0.3-2.1c-2.5-0.4-4.2,1.4-4.2,4.6v11.5c0,0.8,0.1,1.7,0.3,2.5c0.9,3.5,3.3,7.1,6.2,8.8l3.4,2
						c2.9,1.7,5.4,0.9,6.3-1.6C278,203.3,277.2,203,276.3,202.5z"/>
				</g>
			</g>
			<g>
				<path class="st2" d="M91.1,318.9L271,422.7l129-74.5l-173.3-100c-4.1-2.4-9.2-2.4-13.3,0L91.1,318.9z"/>
				<path class="st6" d="M91.1,318.9L271,422.7l129-74.5l-173.3-100c-4.1-2.4-9.2-2.4-13.3,0L91.1,318.9z"/>
			</g>
			<g>
				<polygon class="st2" points="415.3,239.9 220.1,127.2 220.1,104.6 415.3,217.3 				"/>
				<g>
					<polygon class="st2" points="78.1,186.6 78.1,209.2 220.1,127.2 220.1,104.6 					"/>
					<polygon class="st4" points="78.1,186.6 78.1,209.2 220.1,127.2 220.1,104.6 					"/>
				</g>
			</g>
			<g>
				<path class="st2" d="M424.8,214.8h-13.8L224.4,107.1c-2.7-1.6-6-1.5-8.8,0.1L80.2,185.4h-14c0-1.9,1.6-3.2,2.8-3.9l144.3-83.3
					c3.7-2.1,9.8-2.1,13.5,0L422,210.9C422.7,211.3,424.8,212.9,424.8,214.8z"/>
				<path class="st7" d="M424.8,214.8h-13.8L224.4,107.1c-2.7-1.6-6-1.5-8.8,0.1L80.2,185.4h-14c0-1.9,1.6-3.2,2.8-3.9l144.3-83.3
					c3.7-2.1,9.8-2.1,13.5,0L422,210.9C422.7,211.3,424.8,212.9,424.8,214.8z"/>
			</g>
		</g>
		<g id="Groceries_00000022531634875041523800000006256275040810011826_">
			<g>
				<path class="st2" d="M123.7,326l-3.3-1.9c-3.6-2.1-6.8-7.1-7.2-11.3l-1.2-13.1c-0.1-0.8,0-1.4,0.1-2c0.5,0.1,1,0.4,1.5,0.7
					l3.6,2.1c3.6,2.1,6.8,7.1,7.1,11.3l1.1,12.9c0.1,0.8,0,1.4-0.1,2C124.8,326.6,124.3,326.3,123.7,326z M153.4,343.1l-3.3-1.9
					c-3.6-2.1-6.8-7.1-7.1-11.3l-0.9-12.7c-0.1-0.8,0-1.5,0.1-2c0.5,0.1,1.1,0.4,1.6,0.7l3.6,2.1c3.6,2.1,6.7,7.1,7,11.3l0.8,12.5
					c0.1,0.8,0,1.5-0.2,2.1C154.6,343.7,154,343.5,153.4,343.1z M183.2,360.3l-3.3-1.9c-3.6-2.1-6.7-7.1-6.9-11.3l-0.6-12.3
					c0-0.8,0-1.5,0.2-2.1c0.5,0.1,1.1,0.4,1.7,0.7l3.6,2.1c3.6,2.1,6.7,7.1,6.8,11.3l0.5,12.1c0,0.8,0,1.5-0.2,2.1
					C184.4,360.9,183.8,360.7,183.2,360.3z M213,377.5l-3.4-1.9c-3.6-2.1-6.6-7.1-6.7-11.3l-0.3-12c0-0.8,0.1-1.5,0.2-2.1
					c0.6,0.1,1.2,0.4,1.8,0.8l3.6,2.1c3.6,2.1,6.6,7.1,6.7,11.3l0.2,11.8c0,0.8-0.1,1.5-0.3,2.1C214.3,378.1,213.6,377.9,213,377.5z
					 M242.8,394.8l-3.4-2c-3.6-2.1-6.6-7.1-6.6-11.3l-0.1-11.7c0-0.8,0.1-1.5,0.3-2.2c0.6,0.1,1.2,0.4,1.9,0.8l3.6,2.1
					c3.6,2.1,6.5,7.1,6.5,11.3v11.5c0,0.8-0.1,1.6-0.3,2.2C244.2,395.4,243.5,395.2,242.8,394.8z M110.3,270.2
					c-0.5-0.1-1-0.4-1.6-0.7l-3.3-1.9c-3.6-2.1-6.8-7.1-7.2-11.3L97,243.3c-0.1-0.8,0-1.4,0.1-2c0.5,0.1,1,0.4,1.5,0.7l3.6,2.1
					c3.6,2.1,6.8,7.1,7.1,11.3l1.1,12.9C110.4,268.9,110.4,269.6,110.3,270.2z M140.1,287.3c-0.5-0.1-1.1-0.4-1.7-0.7l-3.3-1.9
					c-3.6-2.1-6.8-7.1-7.1-11.3l-0.9-12.7c0-0.8,0-1.5,0.1-2c0.5,0.1,1.1,0.4,1.6,0.7l3.6,2.1c3.6,2.1,6.7,7.1,7,11.3l0.8,12.5
					C140.3,286,140.2,286.7,140.1,287.3z M169.9,304.5c-0.6-0.1-1.2-0.4-1.8-0.7l-3.3-1.9c-3.6-2.1-6.7-7.1-6.9-11.3l-0.6-12.3
					c0-0.8,0-1.5,0.2-2.1c0.5,0.1,1.1,0.4,1.7,0.7l3.6,2.1c3.6,2.1,6.7,7.1,6.8,11.3l0.5,12.1C170.1,303.2,170.1,303.9,169.9,304.5z
					 M199.8,321.8c-0.6-0.1-1.2-0.4-1.9-0.8l-3.4-1.9c-3.6-2.1-6.6-7.1-6.7-11.3l-0.3-12c0-0.8,0.1-1.5,0.2-2.1
					c0.6,0.1,1.2,0.4,1.8,0.8l3.6,2.1c3.6,2.1,6.6,7.1,6.7,11.3l0.2,11.8C200.1,320.5,200,321.2,199.8,321.8z M230.1,336.9
					c0,0.8-0.1,1.6-0.3,2.2c-0.6-0.1-1.3-0.4-1.9-0.8l-3.4-2c-3.6-2.1-6.6-7.1-6.6-11.3l-0.1-11.7c0-0.8,0.1-1.5,0.3-2.2
					c0.6,0.1,1.2,0.4,1.9,0.8l3.6,2.1c3.6,2.1,6.5,7.1,6.5,11.3V336.9z M261.5,355c0,0.8-0.1,1.5-0.3,2.2c-0.6-0.1-1.3-0.4-1.9-0.8
					l-3.4-2c-3.6-2.1-6.6-7.1-6.6-11.3l-0.1-11.7c0-0.8,0.1-1.5,0.3-2.2c0.6,0.1,1.2,0.4,1.9,0.8l3.6,2.1c3.6,2.1,6.5,7.1,6.5,11.3
					V355z M271,298.6l-196-113.2l11.4,123.2c0.7,8.5,7.3,19,14.8,23.3l156.4,90.3c6.7,3.9,17.2,4.2,24.7,1.1
					c0.2-0.1,0.4-0.2,0.6-0.2c0.1,0,0.2-0.1,0.3-0.1c0.4-0.2,0.9-0.4,1.4-0.7l105.5-61c7.4-4.3,14.1-14.8,14.8-23.3l11.4-123.2
					L271,298.6z M378.9,299.2l1-12.9c0.3-4.2,3.5-9.2,7.1-11.3l3.6-2.1c0.5-0.3,1-0.5,1.5-0.7c0.1,0.6,0.1,1.3,0.1,2l-1.2,13.1
					c-0.4,4.1-3.6,9.2-7.2,11.3l-3.3,1.9c-0.6,0.3-1.1,0.5-1.6,0.7C378.9,300.7,378.9,300,378.9,299.2z M349.8,303.8
					c0.2-4.1,3.4-9.2,7-11.3l3.6-2.1c0.6-0.3,1.1-0.6,1.6-0.7c0.1,0.6,0.2,1.3,0.1,2.1l-0.9,12.7c-0.3,4.1-3.4,9.2-7,11.3l-3.3,1.9
					c-0.6,0.3-1.1,0.6-1.7,0.7c-0.1-0.6-0.2-1.3-0.2-2.1L349.8,303.8z M319.7,321.4c0.2-4.2,3.2-9.2,6.8-11.3l3.6-2.1
					c0.6-0.3,1.2-0.6,1.7-0.7c0.2,0.6,0.2,1.3,0.2,2.1l-0.6,12.3c-0.2,4.1-3.3,9.2-6.9,11.3l-3.3,1.9c-0.6,0.4-1.2,0.6-1.8,0.7
					c-0.2-0.6-0.2-1.3-0.2-2.1L319.7,321.4z M289.2,350.7l0.2-11.8c0.1-4.2,3.1-9.2,6.7-11.3l3.6-2.1c0.6-0.4,1.2-0.6,1.8-0.8
					c0.2,0.6,0.3,1.3,0.2,2.1l-0.3,12c-0.1,4.2-3.1,9.2-6.7,11.3l-3.4,1.9c-0.7,0.4-1.3,0.6-1.9,0.8
					C289.3,352.2,289.2,351.5,289.2,350.7z M304.2,390l0.5-12.1c0.2-4.2,3.2-9.2,6.8-11.3l3.6-2.1c0.6-0.3,1.2-0.6,1.7-0.7
					c0.2,0.6,0.2,1.3,0.2,2.1l-0.6,12.3c-0.2,4.1-3.3,9.2-6.9,11.3l-3.3,1.9c-0.6,0.4-1.2,0.6-1.8,0.7
					C304.2,391.5,304.1,390.8,304.2,390z M334.1,372.8l0.8-12.5c0.2-4.1,3.4-9.2,7-11.3l3.6-2.1c0.6-0.3,1.1-0.6,1.6-0.7
					c0.1,0.6,0.2,1.3,0.1,2l-0.9,12.7c-0.3,4.1-3.4,9.2-7,11.3l-3.3,1.9c-0.6,0.3-1.1,0.6-1.7,0.7
					C334.1,374.3,334,373.6,334.1,372.8z M363.9,355.7l1.1-12.9c0.3-4.2,3.5-9.2,7.1-11.3l3.6-2.1c0.5-0.3,1-0.5,1.5-0.7
					c0.1,0.6,0.1,1.3,0.1,2l-1.2,13.1c-0.4,4.1-3.6,9.2-7.2,11.3l-3.3,1.9c-0.6,0.3-1.1,0.5-1.6,0.7
					C363.9,357.2,363.8,356.5,363.9,355.7z"/>
				<path class="st5" d="M123.7,326l-3.3-1.9c-3.6-2.1-6.8-7.1-7.2-11.3l-1.2-13.1c-0.1-0.8,0-1.4,0.1-2c0.5,0.1,1,0.4,1.5,0.7
					l3.6,2.1c3.6,2.1,6.8,7.1,7.1,11.3l1.1,12.9c0.1,0.8,0,1.4-0.1,2C124.8,326.6,124.3,326.3,123.7,326z M153.4,343.1l-3.3-1.9
					c-3.6-2.1-6.8-7.1-7.1-11.3l-0.9-12.7c-0.1-0.8,0-1.5,0.1-2c0.5,0.1,1.1,0.4,1.6,0.7l3.6,2.1c3.6,2.1,6.7,7.1,7,11.3l0.8,12.5
					c0.1,0.8,0,1.5-0.2,2.1C154.6,343.7,154,343.5,153.4,343.1z M183.2,360.3l-3.3-1.9c-3.6-2.1-6.7-7.1-6.9-11.3l-0.6-12.3
					c0-0.8,0-1.5,0.2-2.1c0.5,0.1,1.1,0.4,1.7,0.7l3.6,2.1c3.6,2.1,6.7,7.1,6.8,11.3l0.5,12.1c0,0.8,0,1.5-0.2,2.1
					C184.4,360.9,183.8,360.7,183.2,360.3z M213,377.5l-3.4-1.9c-3.6-2.1-6.6-7.1-6.7-11.3l-0.3-12c0-0.8,0.1-1.5,0.2-2.1
					c0.6,0.1,1.2,0.4,1.8,0.8l3.6,2.1c3.6,2.1,6.6,7.1,6.7,11.3l0.2,11.8c0,0.8-0.1,1.5-0.3,2.1C214.3,378.1,213.6,377.9,213,377.5z
					 M242.8,394.8l-3.4-2c-3.6-2.1-6.6-7.1-6.6-11.3l-0.1-11.7c0-0.8,0.1-1.5,0.3-2.2c0.6,0.1,1.2,0.4,1.9,0.8l3.6,2.1
					c3.6,2.1,6.5,7.1,6.5,11.3v11.5c0,0.8-0.1,1.6-0.3,2.2C244.2,395.4,243.5,395.2,242.8,394.8z M110.3,270.2
					c-0.5-0.1-1-0.4-1.6-0.7l-3.3-1.9c-3.6-2.1-6.8-7.1-7.2-11.3L97,243.3c-0.1-0.8,0-1.4,0.1-2c0.5,0.1,1,0.4,1.5,0.7l3.6,2.1
					c3.6,2.1,6.8,7.1,7.1,11.3l1.1,12.9C110.4,268.9,110.4,269.6,110.3,270.2z M140.1,287.3c-0.5-0.1-1.1-0.4-1.7-0.7l-3.3-1.9
					c-3.6-2.1-6.8-7.1-7.1-11.3l-0.9-12.7c0-0.8,0-1.5,0.1-2c0.5,0.1,1.1,0.4,1.6,0.7l3.6,2.1c3.6,2.1,6.7,7.1,7,11.3l0.8,12.5
					C140.3,286,140.2,286.7,140.1,287.3z M169.9,304.5c-0.6-0.1-1.2-0.4-1.8-0.7l-3.3-1.9c-3.6-2.1-6.7-7.1-6.9-11.3l-0.6-12.3
					c0-0.8,0-1.5,0.2-2.1c0.5,0.1,1.1,0.4,1.7,0.7l3.6,2.1c3.6,2.1,6.7,7.1,6.8,11.3l0.5,12.1C170.1,303.2,170.1,303.9,169.9,304.5z
					 M199.8,321.8c-0.6-0.1-1.2-0.4-1.9-0.8l-3.4-1.9c-3.6-2.1-6.6-7.1-6.7-11.3l-0.3-12c0-0.8,0.1-1.5,0.2-2.1
					c0.6,0.1,1.2,0.4,1.8,0.8l3.6,2.1c3.6,2.1,6.6,7.1,6.7,11.3l0.2,11.8C200.1,320.5,200,321.2,199.8,321.8z M230.1,336.9
					c0,0.8-0.1,1.6-0.3,2.2c-0.6-0.1-1.3-0.4-1.9-0.8l-3.4-2c-3.6-2.1-6.6-7.1-6.6-11.3l-0.1-11.7c0-0.8,0.1-1.5,0.3-2.2
					c0.6,0.1,1.2,0.4,1.9,0.8l3.6,2.1c3.6,2.1,6.5,7.1,6.5,11.3V336.9z M261.5,355c0,0.8-0.1,1.5-0.3,2.2c-0.6-0.1-1.3-0.4-1.9-0.8
					l-3.4-2c-3.6-2.1-6.6-7.1-6.6-11.3l-0.1-11.7c0-0.8,0.1-1.5,0.3-2.2c0.6,0.1,1.2,0.4,1.9,0.8l3.6,2.1c3.6,2.1,6.5,7.1,6.5,11.3
					V355z M271,298.6l-196-113.2l11.4,123.2c0.7,8.5,7.3,19,14.8,23.3l156.4,90.3c6.7,3.9,17.2,4.2,24.7,1.1
					c0.2-0.1,0.4-0.2,0.6-0.2c0.1,0,0.2-0.1,0.3-0.1c0.4-0.2,0.9-0.4,1.4-0.7l105.5-61c7.4-4.3,14.1-14.8,14.8-23.3l11.4-123.2
					L271,298.6z M378.9,299.2l1-12.9c0.3-4.2,3.5-9.2,7.1-11.3l3.6-2.1c0.5-0.3,1-0.5,1.5-0.7c0.1,0.6,0.1,1.3,0.1,2l-1.2,13.1
					c-0.4,4.1-3.6,9.2-7.2,11.3l-3.3,1.9c-0.6,0.3-1.1,0.5-1.6,0.7C378.9,300.7,378.9,300,378.9,299.2z M349.8,303.8
					c0.2-4.1,3.4-9.2,7-11.3l3.6-2.1c0.6-0.3,1.1-0.6,1.6-0.7c0.1,0.6,0.2,1.3,0.1,2.1l-0.9,12.7c-0.3,4.1-3.4,9.2-7,11.3l-3.3,1.9
					c-0.6,0.3-1.1,0.6-1.7,0.7c-0.1-0.6-0.2-1.3-0.2-2.1L349.8,303.8z M319.7,321.4c0.2-4.2,3.2-9.2,6.8-11.3l3.6-2.1
					c0.6-0.3,1.2-0.6,1.7-0.7c0.2,0.6,0.2,1.3,0.2,2.1l-0.6,12.3c-0.2,4.1-3.3,9.2-6.9,11.3l-3.3,1.9c-0.6,0.4-1.2,0.6-1.8,0.7
					c-0.2-0.6-0.2-1.3-0.2-2.1L319.7,321.4z M289.2,350.7l0.2-11.8c0.1-4.2,3.1-9.2,6.7-11.3l3.6-2.1c0.6-0.4,1.2-0.6,1.8-0.8
					c0.2,0.6,0.3,1.3,0.2,2.1l-0.3,12c-0.1,4.2-3.1,9.2-6.7,11.3l-3.4,1.9c-0.7,0.4-1.3,0.6-1.9,0.8
					C289.3,352.2,289.2,351.5,289.2,350.7z M304.2,390l0.5-12.1c0.2-4.2,3.2-9.2,6.8-11.3l3.6-2.1c0.6-0.3,1.2-0.6,1.7-0.7
					c0.2,0.6,0.2,1.3,0.2,2.1l-0.6,12.3c-0.2,4.1-3.3,9.2-6.9,11.3l-3.3,1.9c-0.6,0.4-1.2,0.6-1.8,0.7
					C304.2,391.5,304.1,390.8,304.2,390z M334.1,372.8l0.8-12.5c0.2-4.1,3.4-9.2,7-11.3l3.6-2.1c0.6-0.3,1.1-0.6,1.6-0.7
					c0.1,0.6,0.2,1.3,0.1,2l-0.9,12.7c-0.3,4.1-3.4,9.2-7,11.3l-3.3,1.9c-0.6,0.3-1.1,0.6-1.7,0.7
					C334.1,374.3,334,373.6,334.1,372.8z M363.9,355.7l1.1-12.9c0.3-4.2,3.5-9.2,7.1-11.3l3.6-2.1c0.5-0.3,1-0.5,1.5-0.7
					c0.1,0.6,0.1,1.3,0.1,2l-1.2,13.1c-0.4,4.1-3.6,9.2-7.2,11.3l-3.3,1.9c-0.6,0.3-1.1,0.5-1.6,0.7
					C363.9,357.2,363.8,356.5,363.9,355.7z"/>
				<path class="st7" d="M271,298.6v115.9c0,7.7,4.9,11.3,11.2,8.9c0.2-0.1,0.4-0.2,0.6-0.2c0.1,0,0.2-0.1,0.3-0.1
					c0.4-0.2,0.9-0.4,1.4-0.7l105.5-61c7.4-4.3,14.1-14.8,14.8-23.3l11.4-123.2L271,298.6z M378.9,299.2l1-12.9
					c0.3-4.2,3.5-9.2,7.1-11.3l3.6-2.1c0.5-0.3,1-0.5,1.5-0.7c0.1,0.6,0.1,1.3,0.1,2l-1.2,13.1c-0.4,4.1-3.6,9.2-7.2,11.3l-3.3,1.9
					c-0.6,0.3-1.1,0.5-1.6,0.7C378.9,300.7,378.9,300,378.9,299.2z M349.8,303.8c0.2-4.1,3.4-9.2,7-11.3l3.6-2.1
					c0.6-0.3,1.1-0.6,1.6-0.7c0.1,0.6,0.2,1.3,0.1,2.1l-0.9,12.7c-0.3,4.1-3.4,9.2-7,11.3l-3.3,1.9c-0.6,0.3-1.1,0.6-1.7,0.7
					c-0.1-0.6-0.2-1.3-0.2-2.1L349.8,303.8z M319.7,321.4c0.2-4.2,3.2-9.2,6.8-11.3l3.6-2.1c0.6-0.3,1.2-0.6,1.7-0.7
					c0.2,0.6,0.2,1.3,0.2,2.1l-0.6,12.3c-0.2,4.1-3.3,9.2-6.9,11.3l-3.3,1.9c-0.6,0.4-1.2,0.6-1.8,0.7c-0.2-0.6-0.2-1.3-0.2-2.1
					L319.7,321.4z M289.2,350.7l0.2-11.8c0.1-4.2,3.1-9.2,6.7-11.3l3.6-2.1c0.6-0.4,1.2-0.6,1.8-0.8c0.2,0.6,0.3,1.3,0.2,2.1
					l-0.3,12c-0.1,4.2-3.1,9.2-6.7,11.3l-3.4,1.9c-0.7,0.4-1.3,0.6-1.9,0.8C289.3,352.2,289.2,351.5,289.2,350.7z M304.2,390
					l0.5-12.1c0.2-4.2,3.2-9.2,6.8-11.3l3.6-2.1c0.6-0.3,1.2-0.6,1.7-0.7c0.2,0.6,0.2,1.3,0.2,2.1l-0.6,12.3
					c-0.2,4.1-3.3,9.2-6.9,11.3l-3.3,1.9c-0.6,0.4-1.2,0.6-1.8,0.7C304.2,391.5,304.1,390.8,304.2,390z M334.1,372.8l0.8-12.5
					c0.2-4.1,3.4-9.2,7-11.3l3.6-2.1c0.6-0.3,1.1-0.6,1.6-0.7c0.1,0.6,0.2,1.3,0.1,2l-0.9,12.7c-0.3,4.1-3.4,9.2-7,11.3l-3.3,1.9
					c-0.6,0.3-1.1,0.6-1.7,0.7C334.1,374.3,334,373.6,334.1,372.8z M363.9,355.7l1.1-12.9c0.3-4.2,3.5-9.2,7.1-11.3l3.6-2.1
					c0.5-0.3,1-0.5,1.5-0.7c0.1,0.6,0.1,1.3,0.1,2l-1.2,13.1c-0.4,4.1-3.6,9.2-7.2,11.3l-3.3,1.9c-0.6,0.3-1.1,0.5-1.6,0.7
					C363.9,357.2,363.8,356.5,363.9,355.7z"/>
				<g>
					<path class="st2" d="M381.5,333.2l-1.2,13.1c-0.4,4.1-3.6,9.2-7.2,11.3l-3.3,1.9c-2.9,1.7-5.2,0.9-5.8-1.7
						c0.5-0.1,1-0.4,1.6-0.7l3.3-1.9c3.6-2.1,6.8-7.1,7.2-11.3l1.2-13.1c0.1-0.8,0-1.4-0.1-2C380,328,381.8,329.7,381.5,333.2z"/>
					<path class="st2" d="M321.2,368.3l-0.6,12.3c-0.2,4.2-3.3,9.2-6.9,11.3l-3.3,1.9c-2.9,1.7-5.3,0.9-6-1.6
						c0.6-0.1,1.1-0.4,1.8-0.7l3.3-1.9c3.6-2.1,6.7-7.1,6.9-11.3l0.6-12.3c0-0.8,0-1.5-0.2-2.1C319.5,363,321.4,364.8,321.2,368.3z"
						/>
					<path class="st2" d="M351.4,350.7l-0.9,12.7c-0.3,4.1-3.5,9.2-7,11.3l-3.3,1.9c-2.9,1.7-5.3,0.9-5.9-1.7
						c0.5-0.1,1.1-0.4,1.7-0.7l3.3-1.9c3.6-2.1,6.8-7.1,7-11.3l0.9-12.7c0.1-0.8,0-1.5-0.1-2C349.8,345.5,351.6,347.2,351.4,350.7z"
						/>
					<path class="st2" d="M306.1,329.3l-0.4,12c-0.1,4.2-3.1,9.2-6.7,11.3l-3.4,1.9c-2.9,1.7-5.3,0.9-6.1-1.6
						c0.6-0.1,1.2-0.4,1.9-0.8l3.4-1.9c3.6-2.1,6.6-7.1,6.7-11.3l0.3-12c0-0.8-0.1-1.5-0.2-2.1C304.3,324.1,306.2,325.8,306.1,329.3
						z"/>
					<path class="st2" d="M366.4,294.2l-0.9,12.7c-0.3,4.2-3.4,9.2-7,11.3l-3.3,1.9c-2.9,1.7-5.3,0.9-5.9-1.7
						c0.5-0.1,1.1-0.4,1.7-0.7l3.3-1.9c3.6-2.1,6.8-7.1,7-11.3l0.9-12.7c0-0.8,0-1.5-0.1-2.1C364.8,289,366.7,290.7,366.4,294.2z"/>
					<path class="st2" d="M336.3,311.8l-0.6,12.3c-0.2,4.2-3.3,9.2-6.9,11.3l-3.3,1.9c-2.9,1.7-5.3,0.9-6-1.6
						c0.6-0.1,1.2-0.4,1.8-0.7l3.3-1.9c3.6-2.1,6.7-7.1,6.9-11.3l0.6-12.3c0-0.8,0-1.5-0.2-2.1C334.5,306.5,336.4,308.3,336.3,311.8
						z"/>
					<path class="st2" d="M396.6,276.7l-1.2,13.1c-0.4,4.1-3.6,9.2-7.2,11.3l-3.3,1.9c-2.9,1.7-5.2,0.9-5.8-1.7
						c0.5-0.1,1-0.4,1.6-0.7l3.3-1.9c3.6-2.1,6.8-7.1,7.2-11.3l1.2-13.1c0.1-0.8,0-1.4-0.1-2C395,271.5,396.9,273.2,396.6,276.7z"/>
					<path class="st4" d="M347,346.3c0.1,0.6,0.2,1.3,0.1,2l-0.9,12.7c-0.3,4.1-3.4,9.2-7,11.3l-3.3,1.9c-0.6,0.3-1.1,0.6-1.7,0.7
						c0.7,2.6,3,3.4,5.9,1.7l3.3-1.9c3.6-2.1,6.8-7.1,7-11.3l0.9-12.7C351.6,347.2,349.8,345.5,347,346.3z M377.2,328.8
						c0.1,0.6,0.1,1.3,0.1,2l-1.2,13.1c-0.4,4.1-3.6,9.2-7.2,11.3l-3.3,1.9c-0.6,0.3-1.1,0.5-1.6,0.7c0.6,2.6,2.9,3.4,5.8,1.7
						l3.3-1.9c3.6-2.1,6.8-7.1,7.2-11.3l1.2-13.1C381.8,329.7,380,328,377.2,328.8z M316.8,363.8c0.2,0.6,0.2,1.3,0.2,2.1l-0.6,12.3
						c-0.2,4.1-3.3,9.2-6.9,11.3l-3.3,1.9c-0.6,0.4-1.2,0.6-1.8,0.7c0.7,2.6,3.1,3.3,6,1.6l3.3-1.9c3.6-2.1,6.7-7.1,6.9-11.3
						l0.6-12.3C321.4,364.8,319.5,363,316.8,363.8z M336.3,311.8c0.2-3.5-1.7-5.2-4.4-4.5c0.2,0.6,0.2,1.3,0.2,2.1l-0.6,12.3
						c-0.2,4.1-3.3,9.2-6.9,11.3l-3.3,1.9c-0.6,0.4-1.2,0.6-1.8,0.7c0.7,2.6,3.1,3.3,6,1.6l3.3-1.9c3.6-2.1,6.7-7.1,6.9-11.3
						L336.3,311.8z M306.1,329.3c0.1-3.4-1.8-5.2-4.5-4.5c0.2,0.6,0.3,1.3,0.2,2.1l-0.3,12c-0.1,4.2-3.1,9.2-6.7,11.3l-3.4,1.9
						c-0.7,0.4-1.3,0.6-1.9,0.8c0.8,2.5,3.2,3.3,6.1,1.6l3.4-1.9c3.6-2.1,6.6-7.1,6.7-11.3L306.1,329.3z M392.2,272.3
						c0.1,0.6,0.1,1.3,0.1,2l-1.2,13.1c-0.4,4.1-3.6,9.2-7.2,11.3l-3.3,1.9c-0.6,0.3-1.1,0.5-1.6,0.7c0.6,2.6,2.9,3.4,5.8,1.7
						l3.3-1.9c3.6-2.1,6.8-7.1,7.2-11.3l1.2-13.1C396.9,273.2,395,271.5,392.2,272.3z M366.4,294.2c0.2-3.5-1.6-5.2-4.4-4.4
						c0.1,0.6,0.2,1.3,0.1,2.1l-0.9,12.7c-0.3,4.1-3.4,9.2-7,11.3l-3.3,1.9c-0.6,0.3-1.1,0.6-1.7,0.7c0.6,2.6,3,3.4,5.9,1.7l3.3-1.9
						c3.6-2.1,6.8-7.1,7-11.3L366.4,294.2z"/>
				</g>
				<g>
					<path class="st2" d="M120.5,324.1c-3.6-2.1-6.8-7.1-7.2-11.3l-1.2-13.1c-0.1-0.8,0-1.4,0.1-2c-2.8-0.9-4.6,0.9-4.3,4.4
						l1.2,13.1c0.4,4.1,3.6,9.2,7.2,11.3l3.3,1.9c2.9,1.7,5.2,0.9,5.8-1.7c-0.5-0.1-1-0.4-1.6-0.7L120.5,324.1z M179.8,358.4
						c-3.6-2.1-6.7-7.1-6.9-11.3l-0.6-12.3c0-0.8,0-1.5,0.2-2.1c-2.7-0.7-4.6,1-4.4,4.5l0.6,12.3c0.2,4.2,3.3,9.2,6.9,11.3l3.3,1.9
						c2.9,1.7,5.3,0.9,6-1.6c-0.6-0.1-1.2-0.4-1.8-0.7L179.8,358.4z M150.1,341.2c-3.6-2.1-6.8-7.1-7.1-11.3l-0.9-12.7
						c-0.1-0.8,0-1.5,0.1-2c-2.8-0.8-4.6,0.9-4.4,4.4l0.9,12.7c0.3,4.2,3.4,9.2,7,11.3l3.3,1.9c2.9,1.7,5.3,0.9,5.9-1.7
						c-0.5-0.1-1.1-0.4-1.7-0.7L150.1,341.2z M242.8,394.8l-3.4-2c-3.6-2.1-6.6-7.1-6.6-11.3l-0.1-11.7c0-0.8,0.1-1.5,0.3-2.2
						c-2.7-0.6-4.6,1.2-4.5,4.6l0.1,11.6c0,4.2,3,9.2,6.6,11.3l3.4,2c2.9,1.7,5.4,0.9,6.2-1.6C244.2,395.4,243.5,395.2,242.8,394.8z
						 M209.6,375.6c-3.6-2.1-6.6-7.1-6.7-11.3l-0.3-12c0-0.8,0.1-1.5,0.2-2.1c-2.7-0.7-4.6,1.1-4.5,4.5l0.4,12
						c0.1,4.2,3.1,9.2,6.7,11.3l3.4,2c2.9,1.7,5.3,0.9,6.1-1.6c-0.6-0.1-1.2-0.4-1.9-0.8L209.6,375.6z"/>
					<path class="st2" d="M105.4,267.6c-3.6-2.1-6.8-7.1-7.2-11.3L97,243.3c-0.1-0.8,0-1.4,0.1-2c-2.8-0.9-4.6,0.9-4.3,4.4l1.2,13.1
						c0.4,4.1,3.6,9.2,7.2,11.3l3.3,1.9c2.9,1.7,5.2,0.9,5.8-1.7c-0.5-0.1-1-0.4-1.6-0.7L105.4,267.6z M164.8,301.9
						c-3.6-2.1-6.7-7.1-6.9-11.3l-0.6-12.3c0-0.8,0-1.5,0.2-2.1c-2.7-0.7-4.6,1-4.4,4.5l0.6,12.3c0.2,4.2,3.3,9.2,6.9,11.3l3.3,1.9
						c2.9,1.7,5.3,0.9,6-1.7c-0.6-0.1-1.2-0.4-1.8-0.7L164.8,301.9z M135.1,284.7c-3.6-2.1-6.8-7.1-7.1-11.3l-0.9-12.7
						c0-0.8,0-1.5,0.1-2c-2.8-0.8-4.6,0.9-4.4,4.4l0.9,12.7c0.3,4.1,3.5,9.2,7.1,11.3l3.3,1.9c2.9,1.7,5.3,0.9,5.9-1.7
						c-0.5-0.1-1.1-0.4-1.7-0.7L135.1,284.7z M194.6,319.1c-3.6-2.1-6.6-7.1-6.7-11.3l-0.3-12c0-0.8,0.1-1.5,0.2-2.1
						c-2.7-0.7-4.6,1.1-4.5,4.5l0.4,12c0.1,4.2,3.1,9.2,6.7,11.3l3.4,2c2.9,1.7,5.3,0.9,6.1-1.6c-0.6-0.1-1.2-0.4-1.9-0.8
						L194.6,319.1z M224.4,336.3c-3.6-2.1-6.6-7.1-6.6-11.3l-0.1-11.7c0-0.8,0.1-1.5,0.3-2.2c-2.7-0.6-4.6,1.2-4.5,4.6l0.1,11.6
						c0,4.2,3,9.2,6.6,11.3l3.4,2c2.9,1.7,5.4,0.9,6.2-1.6c-0.6-0.1-1.3-0.4-1.9-0.8L224.4,336.3z M259.2,356.4l-3.4-2
						c-3.6-2.1-6.6-7.1-6.6-11.3l-0.1-11.7c0-0.8,0.1-1.5,0.3-2.2c-2.7-0.6-4.6,1.2-4.5,4.5l0.1,11.6c0,4.2,3,9.2,6.6,11.3l3.4,2
						c2.9,1.7,5.4,0.9,6.2-1.6C260.5,357.1,259.9,356.8,259.2,356.4z"/>
					<path class="st4" d="M209.6,375.6c-3.6-2.1-6.6-7.1-6.7-11.3l-0.3-12c0-0.8,0.1-1.5,0.2-2.1c-2.7-0.7-4.6,1.1-4.5,4.5l0.4,12
						c0.1,4.2,3.1,9.2,6.7,11.3l3.4,2c2.9,1.7,5.3,0.9,6.1-1.6c-0.6-0.1-1.2-0.4-1.9-0.8L209.6,375.6z M179.8,358.4
						c-3.6-2.1-6.7-7.1-6.9-11.3l-0.6-12.3c0-0.8,0-1.5,0.2-2.1c-2.7-0.7-4.6,1-4.4,4.5l0.6,12.3c0.2,4.2,3.3,9.2,6.9,11.3l3.3,1.9
						c2.9,1.7,5.3,0.9,6-1.6c-0.6-0.1-1.2-0.4-1.8-0.7L179.8,358.4z M120.5,324.1c-3.6-2.1-6.8-7.1-7.2-11.3l-1.2-13.1
						c-0.1-0.8,0-1.4,0.1-2c-2.8-0.9-4.6,0.9-4.3,4.4l1.2,13.1c0.4,4.1,3.6,9.2,7.2,11.3l3.3,1.9c2.9,1.7,5.2,0.9,5.8-1.7
						c-0.5-0.1-1-0.4-1.6-0.7L120.5,324.1z M239.5,392.8c-3.6-2.1-6.6-7.1-6.6-11.3l-0.1-11.7c0-0.8,0.1-1.5,0.3-2.2
						c-2.7-0.6-4.6,1.2-4.5,4.6l0.1,11.6c0,4.2,3,9.2,6.6,11.3l3.4,2c2.9,1.7,5.4,0.9,6.2-1.6c-0.6-0.1-1.3-0.4-1.9-0.8L239.5,392.8
						z M150.1,341.2c-3.6-2.1-6.8-7.1-7.1-11.3l-0.9-12.7c-0.1-0.8,0-1.5,0.1-2c-2.8-0.8-4.6,0.9-4.4,4.4l0.9,12.7
						c0.3,4.2,3.4,9.2,7,11.3l3.3,1.9c2.9,1.7,5.3,0.9,5.9-1.7c-0.5-0.1-1.1-0.4-1.7-0.7L150.1,341.2z M110.3,270.2
						c-0.5-0.1-1-0.4-1.6-0.7l-3.3-1.9c-3.6-2.1-6.8-7.1-7.2-11.3L97,243.3c-0.1-0.8,0-1.4,0.1-2c-2.8-0.9-4.6,0.9-4.3,4.4l1.2,13.1
						c0.4,4.1,3.6,9.2,7.2,11.3l3.3,1.9C107.4,273.6,109.7,272.8,110.3,270.2z M140.1,287.3c-0.5-0.1-1.1-0.4-1.7-0.7l-3.3-1.9
						c-3.6-2.1-6.8-7.1-7.1-11.3l-0.9-12.7c0-0.8,0-1.5,0.1-2c-2.8-0.8-4.6,0.9-4.4,4.4l0.9,12.7c0.3,4.1,3.5,9.2,7.1,11.3l3.3,1.9
						C137.1,290.7,139.4,289.9,140.1,287.3z M199.8,321.8c-0.6-0.1-1.2-0.4-1.9-0.8l-3.4-1.9c-3.6-2.1-6.6-7.1-6.7-11.3l-0.3-12
						c0-0.8,0.1-1.5,0.2-2.1c-2.7-0.7-4.6,1.1-4.5,4.5l0.4,12c0.1,4.2,3.1,9.2,6.7,11.3l3.4,2C196.6,325.1,199,324.3,199.8,321.8z
						 M169.9,304.5c-0.6-0.1-1.2-0.4-1.8-0.7l-3.3-1.9c-3.6-2.1-6.7-7.1-6.9-11.3l-0.6-12.3c0-0.8,0-1.5,0.2-2.1
						c-2.7-0.7-4.6,1-4.4,4.5l0.6,12.3c0.2,4.2,3.3,9.2,6.9,11.3l3.3,1.9C166.8,307.9,169.2,307.1,169.9,304.5z M229.8,339.1
						c-0.6-0.1-1.3-0.4-1.9-0.8l-3.4-2c-3.6-2.1-6.6-7.1-6.6-11.3l-0.1-11.7c0-0.8,0.1-1.5,0.3-2.2c-2.7-0.6-4.6,1.2-4.5,4.6
						l0.1,11.6c0,4.2,3,9.2,6.6,11.3l3.4,2C226.5,342.3,228.9,341.6,229.8,339.1z M259.2,356.4l-3.4-2c-3.6-2.1-6.6-7.1-6.6-11.3
						l-0.1-11.7c0-0.8,0.1-1.5,0.3-2.2c-2.7-0.6-4.6,1.2-4.5,4.5l0.1,11.6c0,4.2,3,9.2,6.6,11.3l3.4,2c2.9,1.7,5.4,0.9,6.2-1.6
						C260.5,357.1,259.9,356.8,259.2,356.4z"/>
				</g>
			</g>
			<g>
				<path class="st2" d="M424.8,214.8v22.6c0,1.4-0.9,2.8-2.8,3.9l-144.3,83.3c-1.9,1.1-4.3,1.6-6.7,1.6v-22.6
					c2.4,0,4.9-0.5,6.7-1.6L422,218.7c2-1.1,2.9-2.7,2.8-4.2C424.8,214.6,424.8,214.7,424.8,214.8z"/>
				<path class="st4" d="M424.8,214.8v22.6c0,1.4-0.9,2.8-2.8,3.9l-144.3,83.3c-1.9,1.1-4.3,1.6-6.7,1.6v-22.6
					c2.4,0,4.9-0.5,6.7-1.6L422,218.7c2-1.1,2.9-2.7,2.8-4.2C424.8,214.6,424.8,214.7,424.8,214.8z"/>
				<path class="st2" d="M271,303.6v22.6c-2.4,0-4.9-0.5-6.7-1.6L69,211.9c-1.9-1.1-2.8-2.5-2.8-3.9c0-1.4,0-21.2,0-22.6
					c0-0.1,0-0.2,0-0.3c-0.1,1.5,0.8,3,2.8,4.2L264.2,302C266.1,303.1,268.5,303.6,271,303.6z"/>
				<path class="st2" d="M424.8,214.8c0,1.4-0.9,2.8-2.8,3.9L277.7,302c-3.7,2.1-9.8,2.1-13.5,0L69,189.3c-1.9-1.1-2.8-2.5-2.8-3.9
					h14l186.4,107.7c2.7,1.6,6.1,1.6,8.9,0l135.5-78.3H424.8z"/>
				<path class="st7" d="M424.8,214.8c0,1.4-0.9,2.8-2.8,3.9L277.7,302c-3.7,2.1-9.8,2.1-13.5,0L69,189.3c-1.9-1.1-2.8-2.5-2.8-3.9
					h14l186.4,107.7c2.7,1.6,6.1,1.6,8.9,0l135.5-78.3H424.8z"/>
			</g>
		</g>
		<g>
			<path class="st8" d="M339.5,47.7l0,115.5l-5-2.9l0-111.8c0-1-1.1-1.6-1.9-1.1l-17.4,10l-126.5,72.9c-3.7,2.1-6.7,8.4-6.7,14.1
				v130.6c0,1.2-0.6,2.2-1.6,2.8l-3.4,1.9l-1.3,0.7l1.3-2.9v-136c0-5.7,3-12,6.7-14.1l149.1-86.3c0.7-0.4,1.4-0.6,2.1-0.7
				c0.1,0,0.2,0,0.3,0c0.1,0,0.3,0,0.4,0c0.3,0,0.6,0.1,0.9,0.2c0,0,0,0,0.1,0C338.3,41.7,339.5,44.2,339.5,47.7z"/>
			<path class="st9" d="M332.8,41.3l-149.1,86.3c-3.7,2.1-6.7,8.4-6.7,14.1v136.1c0,2.8-1.9,3.9-4.3,2.5l-10.6-6.1
				c-2.4-1.4-4.3-4.7-4.3-7.5V130.5c0-5.7,3-12,6.6-14.1l149.5-86.5c1.1-0.7,2.5-0.7,3.7,0L335.1,40l1.8,1
				C335.5,40.3,334.2,40.6,332.8,41.3z"/>
			<path class="st10" d="M332.6,47.5l-17.4,10l0,91.7l19.3,11.1l0-111.8C334.5,47.6,333.5,47,332.6,47.5z"/>
		</g>
		<g>
			<path class="st10" d="M162.2,256.7c-1,0.6-1.6,1.8-1.6,3.5c0,3.4,2.4,7.6,5.3,9.3c1.5,0.9,2.8,0.9,3.8,0.4c0.6-0.3,2.8-1.6,3.4-2
				c1-0.6,1.6-1.8,1.6-3.5c0-3.4-2.4-7.6-5.3-9.3c-1.5-0.9-2.8-0.9-3.8-0.4C165,255.1,162.7,256.4,162.2,256.7z"/>
			<path class="st8" d="M165.9,269.5c1.5,0.9,2.8,0.9,3.8,0.4c1-0.6,1.6-1.8,1.6-3.5c0-3.4-2.4-7.6-5.3-9.3
				c-1.5-0.9-2.8-0.9-3.8-0.4c-1,0.6-1.6,1.8-1.6,3.5C160.6,263.6,163,267.8,165.9,269.5z"/>
		</g>
	</g>
</g>
<g id="Card">
</g>
<g id="Sparkles">
</g>
</svg>
